# xmcd CD database file
#
# Track frame offsets:
#	150
#	20375
#	41197
#	55779
#	77603
#	95263
#	113169
#	134107
#	149483
#	166906
#	187981
#	203788
#	222594
#
# Disc length: 3200 seconds
#
# Revision: 0
# Processed by: cddbd v1.5.1PL2 Copyright (c) Steve Scherf et al.
# Submitted via: CDex 1.51
#
DISCID=bb0c7e0d
DTITLE=キド カヲル - Romanze
DYEAR=2005
DGENRE=Vocal
TTITLE0=NOISE VIRUS
TTITLE1=Choose a rood by it
TTITLE2=Hurry to the future
TTITLE3=feather
TTITLE4=Amicula
TTITLE5=恋のカミサマ
TTITLE6=1shock=1chane?
TTITLE7=バイバイ
TTITLE8=FAKEGAME
TTITLE9=月下水鏡
TTITLE10=taboo
TTITLE11=The wing of the HEART
TTITLE12=フウスアルク
EXTD=YEAR: 2005
EXTT0=
EXTT1=
EXTT2=
EXTT3=
EXTT4=
EXTT5=
EXTT6=
EXTT7=
EXTT8=
EXTT9=
EXTT10=
EXTT11=
EXTT12=
PLAYORDER=
